<svg id="Capa_1" enable-background="new 0 0 512 512" height="512" viewBox="0 0 512 512" width="512" xmlns="http://www.w3.org/2000/svg"><g><g><g><g><path d="m315.256 238.376h-.093c-22.185 0-40.169-17.984-40.169-40.169v-146.146c0-22.185 17.984-40.169 40.169-40.169h.093c22.185 0 40.169 17.984 40.169 40.169v146.146c0 22.184-17.984 40.169-40.169 40.169z" fill="#b8ecbc"/></g></g><g><g><g><path d="m196.744 273.624h.093c22.185 0 40.169 17.984 40.169 40.169v146.146c0 22.185-17.984 40.169-40.169 40.169h-.093c-22.185 0-40.169-17.984-40.169-40.169v-146.146c0-22.184 17.984-40.169 40.169-40.169z" fill="#ff7d97"/></g></g><g><g><path d="m237.006 196.458v.026c0 22.152-17.958 40.11-40.11 40.11h-146.786c-22.152 0-40.11-17.958-40.11-40.11v-.026c0-22.152 17.958-40.11 40.11-40.11h146.786c22.152 0 40.11 17.958 40.11 40.11z" fill="#99ebfa"/></g></g></g><g><g><g><path d="m443.754 236.026h-43.227v-52.896c0-23.819 19.309-43.127 43.127-43.127h.099c23.819 0 43.127 19.309 43.127 43.127v9.769c.002 23.818-19.307 43.127-43.126 43.127z" fill="#d0f2d2"/></g></g><g><g><path d="m68.246 275.974h43.227v52.896c0 23.819-19.309 43.127-43.127 43.127h-.099c-23.819 0-43.127-19.309-43.127-43.127v-9.769c-.002-23.818 19.307-43.127 43.126-43.127z" fill="#ff9eb1"/></g></g></g><g><g><g><path d="m186.107 117.055h43.227v-52.896c0-23.819-19.309-43.127-43.127-43.127h-.099c-23.819 0-43.127 19.309-43.127 43.127v9.769c-.001 23.818 19.308 43.127 43.126 43.127z" fill="#ccf5fc"/></g></g><g><g><path d="m325.893 394.945h-43.227v52.896c0 23.819 19.309 43.127 43.127 43.127h.099c23.819 0 43.127-19.309 43.127-43.127v-9.769c.001-23.818-19.308-43.127-43.126-43.127z" fill="#fff7bf"/></g></g></g><g><g><path d="m344.925 355.652h-29.821c-22.152 0-40.11-17.958-40.11-40.11v-.026c0-22.152 17.958-40.11 40.11-40.11h146.786c22.152 0 40.11 17.958 40.11 40.11v.026c0 22.152-17.958 40.11-40.11 40.11h-26.553" fill="#fff2a0"/></g></g></g><g><g><path d="m315.163 248.376h.093c27.663 0 50.169-22.506 50.169-50.169v-146.146c0-27.664-22.506-50.169-50.262-50.169-27.663 0-50.169 22.506-50.169 50.169v146.146c0 27.663 22.506 50.169 50.169 50.169zm-30.169-196.315c0-16.635 13.534-30.169 30.262-30.169 16.635 0 30.169 13.534 30.169 30.169v146.146c0 16.635-13.534 30.169-30.169 30.169h-.093c-16.635 0-30.169-13.534-30.169-30.169z"/><path d="m196.837 263.624h-.093c-27.663 0-50.169 22.506-50.169 50.169v146.146c0 27.664 22.506 50.169 50.262 50.169 27.663 0 50.169-22.506 50.169-50.169v-146.146c0-27.663-22.506-50.169-50.169-50.169zm30.169 196.315c0 16.635-13.534 30.169-30.262 30.169-16.635 0-30.169-13.534-30.169-30.169v-146.146c0-16.635 13.534-30.169 30.169-30.169h.093c16.635 0 30.169 13.534 30.169 30.169z"/><path d="m196.896 146.348h-146.786c-27.631 0-50.11 22.479-50.11 50.136 0 27.631 22.479 50.11 50.11 50.11h146.785c27.631 0 50.11-22.479 50.11-50.11v-.026c.001-27.631-22.479-50.11-50.109-50.11zm30.11 50.136c0 16.603-13.508 30.11-30.11 30.11h-146.786c-16.603 0-30.11-13.507-30.11-30.136 0-16.603 13.508-30.11 30.11-30.11h146.785c16.603 0 30.11 13.507 30.11 30.11v.026z"/><path d="m400.527 246.026h43.227c29.295 0 53.128-23.833 53.128-53.127v-9.769c0-29.294-23.833-53.127-53.227-53.127-29.295 0-53.128 23.833-53.128 53.127v52.896c0 5.523 4.478 10 10 10zm10-62.896c0-18.267 14.861-33.127 33.227-33.127 18.267 0 33.128 14.861 33.128 33.127v9.769c0 18.266-14.861 33.127-33.128 33.127h-33.227z"/><path d="m111.473 265.974h-43.227c-29.295 0-53.128 23.833-53.128 53.127v9.769c0 29.294 23.833 53.127 53.227 53.127 29.295 0 53.128-23.833 53.128-53.127v-52.896c0-5.523-4.478-10-10-10zm-10 62.896c0 18.267-14.861 33.127-33.227 33.127-18.267 0-33.128-14.861-33.128-33.127v-9.769c0-18.266 14.861-33.127 33.128-33.127h33.227z"/><path d="m186.107 127.055h43.227c5.522 0 10-4.477 10-10v-52.896c0-29.294-23.833-53.127-53.227-53.127-29.294 0-53.127 23.833-53.127 53.127v9.769c0 29.294 23.833 53.127 53.127 53.127zm-33.127-62.896c0-18.267 14.86-33.127 33.227-33.127 18.267 0 33.127 14.861 33.127 33.127v42.896h-33.227c-18.267 0-33.127-14.861-33.127-33.127z"/><path d="m325.893 384.945h-43.227c-5.522 0-10 4.477-10 10v52.896c0 29.294 23.833 53.127 53.227 53.127 29.294 0 53.127-23.833 53.127-53.127v-9.769c0-29.294-23.833-53.127-53.127-53.127zm33.127 62.896c0 18.267-14.86 33.127-33.227 33.127-18.267 0-33.127-14.861-33.127-33.127v-42.896h33.227c18.267 0 33.127 14.861 33.127 33.127z"/><path d="m461.89 265.406h-146.786c-27.631 0-50.11 22.479-50.11 50.136 0 27.631 22.479 50.11 50.11 50.11h29.82c5.522 0 10-4.477 10-10s-4.478-10-10-10h-29.82c-16.603 0-30.11-13.507-30.11-30.136 0-16.603 13.508-30.11 30.11-30.11h146.786c16.603 0 30.11 13.507 30.11 30.136 0 16.603-13.508 30.11-30.11 30.11h-26.552c-5.522 0-10 4.477-10 10s4.478 10 10 10h26.552c27.631 0 50.11-22.479 50.11-50.136 0-27.631-22.479-50.11-50.11-50.11z"/><path d="m395.859 347.34c-3.62-2.412-8.524-2.172-11.893.582-3.147 2.573-4.422 6.958-3.161 10.817 1.309 4.006 5.09 6.826 9.309 6.907 4.132.079 7.973-2.475 9.496-6.318 1.708-4.304.146-9.442-3.751-11.988z"/></g></g></g></svg>