<?xml version="1.0" encoding="iso-8859-1"?>
<!-- Generator: Adobe Illustrator 19.0.0, SVG Export Plug-In . SVG Version: 6.00 Build 0)  -->
<svg version="1.1" id="Capa_1" xmlns="http://www.w3.org/2000/svg" xmlns:xlink="http://www.w3.org/1999/xlink" x="0px" y="0px"
	 viewBox="0 0 512 512" style="enable-background:new 0 0 512 512;" xml:space="preserve">
<path style="fill:#3BBC56;" d="M179.945,112.489c-1.6-13.602-12.457-73.656-80.292-88.638c-3.227-0.712-6.301,1.7-6.356,5.004
	c-0.342,20.53,5.018,85.155,85.786,86.369C179.364,114.305,179.654,113.395,179.945,112.489z"/>
<path style="fill:#30AA44;" d="M113.334,28.855c0.006-0.373,0.056-0.733,0.135-1.08c-4.323-1.518-8.916-2.842-13.816-3.924
	c-3.226-0.712-6.301,1.7-6.356,5.004c-0.342,20.53,5.018,85.155,85.786,86.369c0.176-0.575,0.359-1.142,0.54-1.711
	C117.47,103.032,113.022,47.588,113.334,28.855z"/>
<path style="fill:#93603E;" d="M183.662,150.28c12.724-25.881,33.887-69.468,65.033-88.24c3.683-2.221,4.337-7.295,1.353-10.394
	l-18.045-18.74c-4.121-4.28-11.094-3.851-14.643,0.915c-18.03,24.216-42.15,75.568-47.536,116.568
	C175.098,150.134,179.247,150.141,183.662,150.28z"/>
<path style="fill:#7F573C;" d="M234.123,35.108l-2.12-2.202c-4.122-4.28-11.094-3.851-14.642,0.915
	c-18.03,24.216-42.15,75.568-47.536,116.568c5.275-0.254,9.423-0.248,13.838-0.108c1.795-3.651,3.764-7.663,5.9-11.899
	C197.317,100.55,217.947,57.41,234.123,35.108z"/>
<path style="fill:#3BBC56;" d="M147.903,485.436l-0.001,0.001c-47.077-8.781-89.523-37.627-115.163-80.583
	c-0.015-0.025-0.142-0.237-0.157-0.262c-2.681-4.527-5.137-9.143-7.351-13.798l-0.194-0.415c-0.68-1.445-1.312-2.834-1.926-4.234
	l-0.319-0.729c-0.593-1.369-1.187-2.79-1.763-4.223l-0.161-0.397c-1.947-4.887-3.668-9.866-5.139-14.861l-0.214-0.745
	c-0.395-1.357-0.791-2.798-1.171-4.247l-0.225-0.874c-18.762-73.135,13.995-146.972,67.539-182.43l-0.103,0.072
	c6.287-4.411,13.533-8.76,18.713-11.428v-0.001c15.539-8.107,31.54-13.559,47.635-16.561l0.001,0.001
	c1.737-0.325,4.527-0.789,5.043-0.865l-0.001-0.001c13.295-2.067,26.975-2.526,38.186-1.68v0.001
	c82.923,6.204,145.545,68.288,157.113,143.484l0,0c6.448,40.712-1.762,82.822-24.681,118.781
	c-3.502,5.496-7.472,11.016-12.049,16.58c-0.042,0.052-0.165,0.199-0.207,0.249c-11.158,13.521-24.916,25.373-33.818,31.24
	l0.116-0.081c-18.425,12.917-36.282,20.471-56.115,25.75l-0.002-0.009c-0.068,0.019-0.136,0.038-0.203,0.057l0.001,0.003
	c-10.899,2.794-22.759,4.516-35.491,5.023l0,0C172.762,488.727,160.138,487.718,147.903,485.436z M221.391,482.811L221.391,482.811
	L221.391,482.811z M191.604,447.016c-0.066,0.007-0.132,0.015-0.197,0.022C191.471,447.031,191.538,447.024,191.604,447.016z
	 M225.994,439.026l-0.004,0.001C225.991,439.028,225.993,439.028,225.994,439.026L225.994,439.026z M147.634,191.548
	L147.634,191.548L147.634,191.548z M147.634,191.546v0.001V191.546z M259.396,166.57c0.007,0.003,0.013,0.007,0.02,0.01
	C259.41,166.577,259.403,166.573,259.396,166.57z M258.868,166.285c0.035,0.018,0.07,0.035,0.105,0.055
	c-0.035-0.019-0.069-0.037-0.105-0.056V166.285z"/>
<path style="fill:#30AA44;" d="M167.94,485.436l-0.001,0.001c-47.077-8.781-89.523-37.627-115.164-80.583
	c-0.015-0.025-0.142-0.237-0.157-0.262c-2.681-4.527-5.137-9.143-7.35-13.798l-0.195-0.415c-0.68-1.445-1.312-2.834-1.926-4.234
	l-0.318-0.729c-0.593-1.369-1.187-2.79-1.763-4.223l-0.16-0.397c-1.947-4.887-3.668-9.866-5.139-14.861l-0.214-0.745
	c-0.395-1.357-0.792-2.799-1.171-4.247l-0.226-0.874c-18.763-73.135,13.995-146.972,67.539-182.43l-0.103,0.072
	c6.287-4.411,13.533-8.76,18.713-11.428v-0.001c15.539-8.107,31.54-13.559,47.635-16.561l0.001,0.001
	c1.737-0.325,4.527-0.789,5.043-0.865l-0.001-0.001c5.59-0.869,11.246-1.45,16.76-1.773c-10.943-0.709-24.044-0.209-36.797,1.773
	l0.001,0.001c-0.515,0.076-3.305,0.541-5.043,0.865l-0.001-0.001c-16.096,3.003-32.096,8.455-47.635,16.561v0.001
	c-5.181,2.667-12.427,7.016-18.713,11.428l0.103-0.072C28.113,213.096-4.644,286.935,14.118,360.069l0.226,0.874
	c0.379,1.448,0.776,2.888,1.171,4.247l0.214,0.745c1.473,4.995,3.193,9.973,5.139,14.861l0.16,0.397
	c0.576,1.434,1.17,2.854,1.763,4.223l0.318,0.729c0.613,1.4,1.245,2.788,1.926,4.234l0.195,0.415
	c2.212,4.656,4.669,9.271,7.35,13.798c0.015,0.025,0.142,0.237,0.157,0.262c25.641,42.956,68.087,71.802,115.164,80.583l0.001-0.001
	c12.234,2.282,24.858,3.291,37.891,2.819c1.256-0.05,2.498-0.121,3.736-0.194C182.202,487.632,175.004,486.753,167.94,485.436z"/>
<circle style="fill:#BAD362;" cx="335.337" cy="319.698" r="136.752"/>
<g>
	<path style="fill:#9AB748;" d="M227.167,319.694c0-70.699,53.651-128.864,122.459-136.01c-4.698-0.488-9.465-0.741-14.292-0.741
		c-75.526,0-136.752,61.226-136.752,136.752s61.226,136.752,136.752,136.752c4.827,0,9.595-0.253,14.292-0.741
		C280.818,448.558,227.167,390.393,227.167,319.694z"/>
	<circle style="fill:#9AB748;" cx="335.808" cy="317.584" r="20.462"/>
</g>
<path style="fill:#8EA53A;" d="M335.809,317.579c0-7.569,4.121-14.162,10.231-17.702c-3.013-1.745-6.499-2.76-10.231-2.76
	c-11.301,0-20.462,9.161-20.462,20.462s9.161,20.462,20.462,20.462c3.732,0,7.218-1.015,10.231-2.76
	C339.929,331.741,335.809,325.148,335.809,317.579z"/>
<path style="fill:#3BBC56;" d="M304.196,485.436l-0.001,0.001c-87.563-16.333-146.571-96.989-138.386-183.826
	c0.082-0.897,0.336-3.291,0.542-4.977c0.246-2.017,0.505-3.904,0.828-5.947c0.167-1.002,0.783-5.045,2.022-10.574l0.116-0.506
	c9.99-43.776,37.624-81.433,68.632-101.967l-0.103,0.072c6.287-4.411,13.533-8.76,18.713-11.428v-0.001
	c15.379-8.024,31.289-13.513,47.635-16.561l0.001,0.001c1.737-0.325,4.527-0.789,5.043-0.865l-0.001-0.001
	c13.463-2.093,27.301-2.502,38.186-1.68v0.001c82.66,6.184,145.487,67.913,157.113,143.484l0,0
	c11.03,69.646-22.57,135.089-70.756,166.85l0.116-0.081c-18.056,12.658-35.868,20.36-56.115,25.75l-0.002-0.009
	c-0.068,0.019-0.136,0.038-0.203,0.057l0.001,0.003c-10.599,2.717-22.566,4.508-35.491,5.023l0,0
	C329.053,488.727,316.429,487.718,304.196,485.436z M377.683,482.811L377.683,482.811L377.683,482.811z M344.4,447.284
	c1.714-0.067,7.048-0.561,11.766-1.3c3.194-0.501,6.343-1.135,8.042-1.526c4.789-1.06,8.432-2.115,12.771-3.535
	c2.892-0.96,5.952-2.109,8.71-3.256c1.002-0.423,2.042-0.859,3.479-1.507c1.114-0.507,2.246-1.029,3.429-1.605
	c15.119-7.429,27.994-17.209,38.425-28.44l0,0c54.223-58.25,47.288-158.235-34.999-203.787l-0.001,0.001
	c-8.998-4.761-20.359-8.996-28.741-10.911l0,0c-8.432-2.08-15.252-2.966-22.882-3.543l0,0c-24.935-1.584-48.852,3.946-68.803,14.509
	l0,0c-95.749,49.647-93.76,193.676,13.881,236.66c0.001,0,0.003,0.001,0.004,0.001c8.483,3.151,11.655,3.805,14.963,4.699
	c0,0,3.424,0.937,10.864,2.201l-0.001,0.001C324.635,447.337,333.497,447.976,344.4,447.284z M347.896,447.016
	c-0.066,0.007-0.132,0.015-0.197,0.022C347.764,447.031,347.83,447.024,347.896,447.016z M382.286,439.026l-0.004,0.001
	C382.283,439.028,382.284,439.028,382.286,439.026L382.286,439.026z M303.925,191.548L303.925,191.548L303.925,191.548z
	 M303.926,191.546v0.001V191.546z M415.689,166.57c0.007,0.003,0.013,0.007,0.02,0.01
	C415.702,166.577,415.696,166.573,415.689,166.57z M415.161,166.285c0.035,0.018,0.07,0.035,0.105,0.055
	c-0.035-0.019-0.069-0.037-0.105-0.056V166.285z"/>
<path style="fill:#30AA44;" d="M324.618,485.436l-0.001,0.001c-87.563-16.333-146.571-96.989-138.386-183.826
	c0.082-0.897,0.336-3.291,0.543-4.977c0.246-2.017,0.504-3.904,0.828-5.947c0.167-1.002,0.783-5.045,2.022-10.574l0.116-0.506
	c9.99-43.776,37.624-81.433,68.632-101.967l-0.103,0.072c6.287-4.411,13.533-8.76,18.713-11.428v-0.001
	c15.379-8.024,31.289-13.513,47.635-16.561l0.001,0.001c1.738-0.325,4.528-0.789,5.043-0.865l-0.001-0.001
	c5.552-0.863,11.165-1.436,16.611-1.757c-10.702-0.71-24.037-0.262-37.033,1.757l0.001,0.001c-0.515,0.076-3.305,0.541-5.043,0.865
	l-0.001-0.001c-16.346,3.049-32.255,8.538-47.635,16.561v0.001c-5.181,2.667-12.427,7.016-18.713,11.428l0.103-0.072
	c-31.008,20.534-58.642,58.191-68.632,101.967l-0.116,0.506c-1.238,5.529-1.854,9.573-2.022,10.574
	c-0.323,2.043-0.581,3.93-0.828,5.947c-0.206,1.686-0.46,4.081-0.542,4.977c-8.185,86.837,50.823,167.493,138.386,183.826
	l0.001-0.001c12.234,2.282,24.859,3.291,37.891,2.819c1.323-0.052,2.63-0.127,3.932-0.206
	C338.756,487.616,331.621,486.742,324.618,485.436z"/>
<path d="M505.032,307.541c4.24-0.313,7.358-4.057,6.928-8.259c-3.902-38.138-19.889-72.737-43.207-99.152v-0.001
	c-14.68-16.716-31.97-30.269-51.088-40.354v0.001c-13.097-6.944-28.23-12.523-39.438-15.116l0.037,0.009l-0.605-0.154
	c-9.409-2.258-18.33-3.662-19.332-3.662v-0.001c-35.555-4.904-71.717,1.587-102.527,16.752
	c-19.184-9.371-39.505-15.103-60.641-17.112c12.115-24.022,30.438-56.514,56.156-72.016c7.622-4.597,9.451-15.219,2.611-22.324
	l-17.771-18.456c-7.318-7.6-19.75-6.867-26.082,1.638c-10.48,14.077-22.195,35.336-31.56,58.498
	c-8.573-24.758-29.477-59.855-80.03-71.21c-8.817-1.981-15.834,4.404-15.963,12.11c-0.212,12.803,1.716,45.082,24.174,68.263
	c14.492,14.959,34.742,23.447,60.245,25.337c-1.588,6.06-2.897,12.073-3.892,17.961C71.876,147.869,0,224.484,0,317.579
	c0,43.341,15.765,85.097,44.392,117.577c28.366,32.185,67.292,53.043,109.604,58.732c4.112,0.537,7.896-2.333,8.449-6.447
	c0.553-4.112-2.333-7.895-6.446-8.448c-80.366-10.804-140.97-80.199-140.97-161.415c0-117.174,119.93-193.759,224.481-150.844
	c-10.881,6.545-26.09,18.691-39.072,33.409l0,0c-73.332,83.186-51.263,214.002,39.047,268.265
	c-15.817,6.477-32.489,10.375-49.736,11.616c-3.986,0.287-7.247,3.587-7.201,7.583c0.048,4.181,3.448,7.441,7.506,7.441
	c0.178,0,0.358-0.006,0.538-0.019c22.833-1.614,44.746-7.496,65.201-17.48c82.632,40.743,181.262,9.737,226.464-60.001l-0.001-0.001
	c0,0,0,0,0-0.001l0.002,0.002c15.933-23.495,26.612-51.321,29.703-81.677c0.42-4.129-2.587-7.815-6.715-8.236
	c-4.122-0.406-7.815,2.587-8.235,6.715c-8.833,86.923-86.771,156.688-184.145,145.062v-0.001
	c-45.67-6.12-87.019-31.272-113.352-70.107c-71.741-106.485-0.554-259.37,146.089-254.64v0.005
	c4.508,0.342,3.962,0.258,10.544,1.049v0.001c0.07,0.01,0.141,0.02,0.2,0.027v0.001c75.932,10.129,133.097,71.442,140.632,144.752
	C497.4,304.596,500.926,307.843,505.032,307.541z M97.544,31.835c53.07,13.052,67.099,55.6,70.768,75.549
	C121.178,103.986,98.14,74.545,97.544,31.835z M178.773,139.675c-0.2-0.069-0.145-0.05-0.345-0.119
	c6.952-37.033,26.998-78.814,43.7-101.248c0.803-1.079,2.331-1.095,3.204-0.188l17.352,18.02
	C211.648,75.337,191.404,114.114,178.773,139.675z"/>
<path d="M387.318,190.557L387.318,190.557c-33.775-14.063-71.965-13.383-101.662-1.505c0.006-0.003,0.012-0.005,0.019-0.008
	c-24.089,8.798-44.444,26.571-48.787,31.818c-68.656,69.537-44.979,186.25,44.884,223.692v0.001
	c26.661,10.474,53.08,12.899,78.143,8.195v-0.002C485.314,433.961,520.018,245.198,387.318,190.557z M456.826,310.004h-95.351
	c-0.616-2.185-1.49-4.262-2.589-6.196l67.403-67.403C444.502,256.953,455.119,282.563,456.826,310.004z M342.064,195.343
	c26.371,1.515,52.467,11.78,73.591,30.443l-67.412,67.412c-1.931-1.088-4.001-1.953-6.179-2.561V195.343z M315.533,196.583
	l-0.076,0.015c3.845-0.603,7.789-1.032,11.58-1.253v95.292c-2.178,0.608-4.249,1.473-6.179,2.561l-67.364-67.364
	C271.644,209.753,291.922,200.71,315.533,196.583z M242.866,236.459l67.348,67.349c-1.099,1.935-1.973,4.011-2.589,6.196h-95.248
	C214.067,282.894,224.495,257.206,242.866,236.459z M239.977,395.324L239.977,395.324c-2.445-2.975-4.76-6.075-6.813-9.108l0,0
	c-10.375-15.346-16.812-32.252-19.51-49.275l0,0c-0.634-4.169-1.01-7.427-1.284-11.911h95.221c0.609,2.2,1.48,4.292,2.578,6.241
	l-67.364,67.364C241.293,396.923,240.82,396.326,239.977,395.324z M327.037,439.812c-6.263-0.358-12.102-1.338-11.723-1.275
	c-0.264-0.041-2.38-0.394-3.246-0.556v0.001c-4.306-0.866-12.452-2.345-24.565-7.319v-0.001c-3.858-1.625-7.179-3.217-9.579-4.49
	v0.001c-5.963-3.144-11.289-6.54-15.733-9.828v0.001c-3.12-2.292-5.931-4.573-8.762-7.078l67.352-67.352
	c1.953,1.109,4.049,1.989,6.257,2.606v95.291H327.037z M321.711,315.891c0.733-5.765,5.388-10.419,11.152-11.152
	c8.458-1.075,15.603,6.071,14.527,14.528c-0.733,5.765-5.388,10.42-11.154,11.152C327.78,331.494,320.636,324.347,321.711,315.891z
	 M391.502,426.056c-11.075,5.67-21.693,9.551-34.364,11.926v-0.001c-4.937,0.921-10.428,1.574-15.074,1.837V344.52
	c2.208-0.616,4.305-1.497,6.258-2.606l67.4,67.401C408.104,416.051,400.117,421.504,391.502,426.056L391.502,426.056z
	 M358.931,331.272c1.098-1.949,1.969-4.039,2.578-6.241h95.323c-1.727,28.184-12.786,53.652-30.484,73.659L358.931,331.272z"/>
<path d="M79.433,330.371c1.676-1.041,2.904-2.748,3.347-4.674c0.089-0.356,0.143-0.723,0.174-1.094
	c0.06-0.72,0.018-1.45-0.134-2.156c-0.08-0.373-0.186-0.745-0.32-1.093c-0.173-0.47-0.39-0.914-0.649-1.33
	c-0.259-0.417-0.561-0.807-0.906-1.171c-0.253-0.275-0.54-0.535-0.84-0.772c-0.565-0.449-1.2-0.81-1.871-1.074
	c-0.347-0.137-0.7-0.25-1.058-0.329c-1.924-0.457-3.996-0.111-5.673,0.93c-1.677,1.042-2.904,2.748-3.348,4.674
	c-0.088,0.356-0.143,0.722-0.173,1.094c-0.059,0.712-0.019,1.435,0.129,2.134c0.081,0.381,0.188,0.761,0.325,1.116
	c0.174,0.47,0.391,0.914,0.649,1.33c0.258,0.417,0.56,0.807,0.905,1.171c0.257,0.279,0.549,0.543,0.854,0.783
	c0.562,0.444,1.192,0.801,1.857,1.063c0.347,0.137,0.699,0.25,1.057,0.329C75.682,331.757,77.757,331.412,79.433,330.371z"/>
<path d="M106.755,358.217c-0.259-0.417-0.561-0.807-0.906-1.172c-0.253-0.274-0.54-0.535-0.84-0.772
	c-0.565-0.449-1.2-0.81-1.871-1.074c-0.347-0.137-0.7-0.25-1.058-0.329c-1.924-0.457-3.996-0.111-5.673,0.93
	c-1.677,1.042-2.904,2.748-3.348,4.674c-0.088,0.356-0.143,0.722-0.173,1.094c-0.059,0.712-0.019,1.435,0.129,2.134
	c0.081,0.381,0.188,0.761,0.325,1.116c0.174,0.47,0.391,0.914,0.649,1.33c0.258,0.417,0.56,0.807,0.905,1.171
	c0.257,0.279,0.549,0.543,0.854,0.783c0.562,0.444,1.192,0.8,1.857,1.063c0.347,0.137,0.699,0.25,1.057,0.329
	c1.924,0.457,3.997,0.112,5.673-0.93c1.676-1.041,2.904-2.748,3.347-4.674c0.089-0.356,0.143-0.723,0.174-1.094
	c0.06-0.72,0.018-1.45-0.134-2.156c-0.08-0.373-0.186-0.745-0.32-1.093C107.23,359.077,107.014,358.634,106.755,358.217z"/>
<path d="M130.382,397.202c-0.259-0.418-0.561-0.807-0.906-1.172c-0.253-0.275-0.54-0.535-0.84-0.772
	c-0.565-0.449-1.2-0.81-1.871-1.074c-0.347-0.137-0.7-0.25-1.058-0.329c-1.924-0.457-3.996-0.111-5.673,0.93
	c-1.677,1.042-2.904,2.748-3.348,4.674c-0.088,0.356-0.143,0.722-0.173,1.094c-0.059,0.712-0.019,1.435,0.129,2.134
	c0.081,0.381,0.188,0.761,0.325,1.116c0.174,0.47,0.391,0.913,0.649,1.33c0.258,0.417,0.56,0.807,0.905,1.171
	c0.257,0.279,0.549,0.543,0.854,0.783c0.562,0.444,1.192,0.799,1.857,1.063c0.347,0.137,0.699,0.25,1.057,0.329
	c1.924,0.457,3.997,0.112,5.673-0.93c1.676-1.041,2.904-2.748,3.347-4.675c0.089-0.356,0.143-0.723,0.174-1.094
	c0.06-0.72,0.018-1.45-0.134-2.156c-0.08-0.373-0.186-0.745-0.32-1.093C130.858,398.063,130.641,397.619,130.382,397.202z"/>
<path d="M66.6,357.079c-0.239-0.429-0.523-0.833-0.85-1.212c-0.24-0.286-0.515-0.559-0.802-0.81
	c-0.544-0.475-1.161-0.865-1.819-1.16c-0.34-0.152-0.687-0.283-1.042-0.378c-1.899-0.546-3.987-0.298-5.711,0.664
	c-1.723,0.963-3.03,2.61-3.562,4.513c-0.105,0.351-0.176,0.715-0.224,1.084c-0.092,0.709-0.086,1.432,0.03,2.138
	c0.063,0.384,0.152,0.768,0.273,1.13c0.152,0.478,0.348,0.931,0.587,1.359c0.239,0.429,0.522,0.833,0.849,1.212
	c0.243,0.291,0.523,0.568,0.817,0.823c0.54,0.47,1.153,0.855,1.806,1.148c0.34,0.152,0.687,0.284,1.041,0.378
	c1.899,0.546,3.987,0.299,5.711-0.664c1.723-0.962,3.029-2.61,3.562-4.513c0.105-0.351,0.176-0.715,0.224-1.085
	c0.093-0.716,0.085-1.448-0.034-2.16c-0.063-0.377-0.151-0.752-0.268-1.106C67.034,357.96,66.839,357.506,66.6,357.079z"/>
<path d="M74.676,403.089c0.152,0.478,0.348,0.931,0.587,1.359c0.239,0.428,0.522,0.833,0.849,1.212
	c0.243,0.291,0.523,0.568,0.817,0.823c0.54,0.47,1.153,0.855,1.806,1.148c0.34,0.153,0.687,0.284,1.041,0.378
	c1.899,0.546,3.987,0.299,5.711-0.664c1.723-0.962,3.029-2.61,3.562-4.513c0.105-0.351,0.177-0.715,0.224-1.085
	c0.093-0.716,0.085-1.448-0.034-2.16c-0.063-0.377-0.151-0.752-0.268-1.106c-0.151-0.477-0.347-0.931-0.586-1.359
	c-0.239-0.429-0.523-0.833-0.85-1.212c-0.239-0.286-0.515-0.559-0.802-0.81c-0.544-0.475-1.161-0.865-1.819-1.16
	c-0.34-0.153-0.687-0.283-1.042-0.378c-1.899-0.546-3.987-0.298-5.711,0.664c-1.723,0.963-3.03,2.61-3.562,4.513
	c-0.105,0.351-0.176,0.715-0.224,1.084c-0.092,0.709-0.086,1.432,0.03,2.138C74.467,402.344,74.557,402.729,74.676,403.089z"/>
<g>
</g>
<g>
</g>
<g>
</g>
<g>
</g>
<g>
</g>
<g>
</g>
<g>
</g>
<g>
</g>
<g>
</g>
<g>
</g>
<g>
</g>
<g>
</g>
<g>
</g>
<g>
</g>
<g>
</g>
</svg>
